#!OML:ASF F:\VICON\USERDATA\INSTALL\rory3\rory3.ASF
:FULLY-SPECIFIED
:DEGREES
1
root -1.08615 18.2954 -36.0871 3.05534 -0.995938 -0.48221
lowerback 2.81578 -0.802097 -3.73385
upperback -1.86149 -1.12635 3.42981
thorax -3.3668 -0.432054 5.73065
lowerneck -6.74525 -12.5153 -20.7516
upperneck 14.9978 -16.8416 13.4612
head 8.72023 -8.2911 5.86242
rclavicle 1.70209e-015 2.38542e-015
rhumerus -36.5087 -18.4411 -72.2613
rradius 24.2489
rwrist -7.55133
rhand -13.036 16.9878
rfingers 7.12502
rthumb 13.0585 -12.5835
lclavicle 1.70209e-015 2.38542e-015
lhumerus -35.7151 19.9488 79.2761
lradius 23.7473
lwrist -12.0322
lhand 0.325571 32.616
lfingers 7.12502
lthumb 25.9022 60.8716
rfemur -10.2882 0.597322 21.8668
rtibia 30.777
rfoot 0 0
rtoes 0
lfemur -8.73715 -4.87897 -19.8547
ltibia 27.7207
lfoot 0 0
ltoes 0
2
root -1.09731 18.2988 -36.0935 3.26605 -0.778442 -0.465023
lowerback 2.87424 -1.01861 -3.90086
upperback -2.33829 -1.41812 3.55918
thorax -3.85373 -0.546973 5.99099
lowerneck -5.335 -12.0792 -21.3412
upperneck 14.6563 -16.4703 13.7467
head 8.367 -8.19284 6.19313
rclavicle -1.25483e-015 1.19271e-014
rhumerus -37.1746 -17.614 -72.1784
rradius 24.2944
rwrist -7.70363
rhand -11.5849 17.6494
rfingers 7.12502
rthumb 14.4569 -11.827
lclavicle -1.25483e-015 1.19271e-014
lhumerus -36.7061 20.0175 79.0831
lradius 24.0864
lwrist -11.8032
lhand 0.346879 32.7921
lfingers 7.12502
lthumb 25.9226 61.0447
rfemur -10.5434 0.592289 21.9187
rtibia 30.7948
rfoot 0 0
rtoes 0
lfemur -9.07428 -4.86117 -19.7735
ltibia 27.8014
lfoot 0 0
ltoes 0
3
root -1.09661 18.2978 -36.0782 3.2202 -1.0928 -0.376873
lowerback 2.99528 -0.799134 -3.84013
upperback -2.01827 -1.13209 3.38583
thorax -3.63003 -0.42177 5.75306
lowerneck -6.76192 -12.4633 -20.8183
upperneck 15.0096 -16.7815 13.5763
head 8.73338 -8.25829 5.92211
rclavicle 2.51587e-015 1.90833e-014
rhumerus -36.5822 -18.1676 -72.4337
rradius 24.3084
rwrist -7.69437
rhand -10.8794 17.5849
rfingers 7.12502
rthumb 15.1366 -11.8416
lclavicle 2.51587e-015 1.90833e-014
lhumerus -35.8031 19.7767 79.3549
lradius 24.0314
lwrist -11.7379
lhand 0.298055 33.0937
lfingers 7.12502
lthumb 25.8758 61.3531
rfemur -10.4833 0.764278 21.7816
rtibia 30.8423
rfoot 0 0
rtoes 0
lfemur -8.93426 -4.83915 -19.9312
ltibia 27.7883
lfoot 0 0
ltoes 0
4
root -1.10365 18.2985 -36.0777 3.28421 -0.947022 -0.331556
lowerback 3.34938 -1.04075 -4.06778
upperback -2.81488 -1.46708 3.54146
thorax -4.61354 -0.531708 6.09817
lowerneck -4.46139 -11.7583 -21.5649
upperneck 14.6969 -16.2066 13.842
head 8.20411 -8.1166 6.35476
rclavicle -5.44173e-015 -4.77083e-015
rhumerus -37.9372 -16.8797 -72.2053
rradius 24.5148
rwrist -7.95558
rhand -10.7457 17.4802
rfingers 7.12502
rthumb 15.2655 -11.9365
lclavicle -5.44173e-015 -4.77083e-015
lhumerus -37.6499 19.7783 78.9101
lradius 24.3878
lwrist -11.4282
lhand 0.185798 33.3448
lfingers 7.12502
lthumb 25.7683 61.6199
rfemur -10.5454 0.774304 21.7753
rtibia 30.8749
rfoot 0 0
rtoes 0
lfemur -9.02084 -4.79144 -19.9286
ltibia 27.7795
lfoot 0 0
ltoes 0
5
root -1.11192 18.2975 -36.0791 3.28667 -0.671547 -0.302559
lowerback 3.6119 -0.942317 -3.95857
upperback -2.51349 -1.34565 3.33803
thorax -4.46894 -0.489424 5.81186
lowerneck -5.88199 -12.2497 -20.9219
upperneck 15.1343 -16.6852 13.6679
head 8.61846 -8.25595 6.03835
rclavicle 6.86739e-015 6.36111e-015
rhumerus -37.3307 -18.0057 -72.2845
rradius 24.3388
rwrist -7.56668
rhand -10.6891 17.6342
rfingers 7.12502
rthumb 15.32 -11.7784
lclavicle 6.86739e-015 6.36111e-015
lhumerus -36.677 18.9658 79.3781
lradius 24.532
lwrist -11.1697
lhand -0.00630854 33.0468
lfingers 7.12502
lthumb 25.5843 61.3484
rfemur -10.5403 0.591783 21.7974
rtibia 30.9088
rfoot 0 0
rtoes 0
lfemur -9.02693 -4.74998 -19.9005
ltibia 27.7264
lfoot 0 0
ltoes 0
6
root -1.11659 18.2966 -36.0739 3.2971 -0.623022 -0.266565
lowerback 3.62082 -1.05201 -4.08486
upperback -2.67799 -1.49587 3.42936
thorax -4.62263 -0.550212 5.9959
lowerneck -5.26227 -12.0607 -21.1707
upperneck 15.0959 -16.5009 13.6004
head 8.47736 -8.21605 6.11858
rclavicle -1.30825e-014 6.36111e-015
rhumerus -37.5721 -17.6389 -72.1796
rradius 24.3553
rwrist -7.42936
rhand -10.7741 17.4557
rfingers 7.12502
rthumb 15.2381 -11.9631
lclavicle -1.30825e-014 6.36111e-015
lhumerus -37.174 18.817 79.4774
lradius 24.838
lwrist -10.9202
lhand -0.133525 32.8461
lfingers 7.12502
lthumb 25.4625 61.1651
rfemur -10.5366 0.506009 21.7796
rtibia 30.928
rfoot 0 0
rtoes 0
lfemur -9.00129 -4.80489 -19.9262
ltibia 27.6833
lfoot 0 0
ltoes 0
7
root -1.12076 18.2977 -36.0636 3.35747 -0.614496 -0.236909
lowerback 3.4215 -1.09641 -4.1444
upperback -2.55423 -1.55135 3.48415
thorax -4.3695 -0.586168 6.08191
lowerneck -5.58191 -12.104 -21.1967
upperneck 15.1504 -16.4692 13.4689
head 8.5372 -8.19643 6.06315
rclavicle 2.04375e-015 8.74653e-015
rhumerus -37.2056 -17.606 -72.2414
rradius 24.3411
rwrist -7.31019
rhand -10.4162 17.8694
rfingers 7.12502
rthumb 15.5828 -11.5228
lclavicle 2.04375e-015 8.74653e-015
lhumerus -36.8366 18.7994 79.7648
lradius 24.8654
lwrist -10.8692
lhand -0.199158 32.9998
lfingers 7.12502
lthumb 25.3996 61.3278
rfemur -10.5655 0.548359 21.7781
rtibia 30.937
rfoot 0 0
rtoes 0
lfemur -9.00965 -4.89773 -19.9412
ltibia 27.6606
lfoot 0 0
ltoes 0
8
root -1.12561 18.2987 -36.0566 3.42913 -0.682819 -0.258026
lowerback 3.27599 -1.08898 -4.18753
upperback -2.66593 -1.53769 3.52083
thorax -4.40398 -0.573698 6.14297
lowerneck -4.84223 -11.9548 -21.3008
upperneck 14.8559 -16.3825 13.5203
head 8.30503 -8.18907 6.15288
rclavicle 6.10642e-015 -2.38542e-015
rhumerus -37.3515 -17.2472 -72.3198
rradius 24.4486
rwrist -7.5997
rhand -11.0297 16.7775
rfingers 7.12502
rthumb 14.9919 -12.6598
lclavicle 6.10642e-015 -2.38542e-015
lhumerus -37.0095 18.673 79.8412
lradius 24.9375
lwrist -10.8014
lhand -0.245484 33.1489
lfingers 7.12502
lthumb 25.3552 61.4833
rfemur -10.6251 0.684508 21.8204
rtibia 30.9319
rfoot 0 0
rtoes 0
lfemur -9.04156 -4.87173 -19.8969
ltibia 27.6311
lfoot 0 0
ltoes 0
9
root -1.13095 18.2985 -36.0613 3.54598 -1.09002 -0.346536
lowerback 3.27918 -0.896508 -4.14013
upperback -2.60615 -1.27777 3.5141
thorax -4.37965 -0.447681 6.09082
lowerneck -5.11934 -12.0756 -21.1407
upperneck 14.9221 -16.5038 13.4467
head 8.37757 -8.22999 6.06754
rclavicle -8.35517e-016 -7.95139e-016
rhumerus -37.112 -17.3101 -72.4409
rradius 24.4323
rwrist -7.80371
rhand -11.0165 16.9543
rfingers 7.12502
rthumb 15.0046 -12.482
lclavicle -8.35517e-016 -7.95139e-016
lhumerus -36.5974 18.5042 80.0528
lradius 24.9437
lwrist -10.6973
lhand -0.223691 33.4686
lfingers 7.12502
lthumb 25.3761 61.8
rfemur -10.8225 0.979609 21.8953
rtibia 30.9341
rfoot 0 0
rtoes 0
lfemur -9.1531 -4.68941 -19.8191
ltibia 27.6304
lfoot 0 0
ltoes 0
10
root -1.13929 18.2979 -36.0464 3.51692 -0.447628 -0.285429
lowerback 3.17144 -1.17322 -4.26259
upperback -2.67229 -1.64948 3.57333
thorax -4.33292 -0.628527 6.24532
lowerneck -4.56968 -11.9307 -21.2727
upperneck 14.7488 -16.3841 13.4528
head 8.21266 -8.20369 6.1406
rclavicle 1.42255e-015 6.36111e-015
rhumerus -37.2007 -17.2821 -72.2522
rradius 24.1959
rwrist -7.47214
rhand -10.0601 18.9228
rfingers 7.12502
rthumb 15.9257 -10.4424
lclavicle 1.42255e-015 6.36111e-015
lhumerus -36.7866 18.552 80.0912
lradius 25.1392
lwrist -10.5213
lhand -0.0821294 33.4307
lfingers 7.12502
lthumb 25.5117 61.7428
rfemur -10.6486 0.821067 21.9474
rtibia 30.9186
rfoot 0 0
rtoes 0
lfemur -9.12907 -5.02305 -19.7918
ltibia 27.6365
lfoot 0 0
ltoes 0
11
root -1.14255 18.2973 -36.042 3.50357 -0.929246 -0.267603
lowerback 3.06012 -0.992279 -4.28047
upperback -2.53751 -1.40666 3.53235
thorax -4.16276 -0.516174 6.19035
lowerneck -4.47749 -11.96 -21.2187
upperneck 14.5289 -16.4364 13.5068
head 8.13308 -8.22381 6.14756
rclavicle 1.08089e-015 -5.08889e-014
rhumerus -36.9312 -17.4519 -72.3214
rradius 24.1807
rwrist -7.44794
rhand -10.5917 18.3705
rfingers 7.12502
rthumb 15.4138 -11.0348
lclavicle 1.08089e-015 -5.08889e-014
lhumerus -36.511 18.5434 80.1718
lradius 25.2038
lwrist -10.5039
lhand 0.115335 32.8442
lfingers 7.12502
lthumb 25.7008 61.129
rfemur -10.6675 1.16672 21.9018
rtibia 30.9209
rfoot 0 0
rtoes 0
lfemur -9.03387 -4.91542 -19.8771
ltibia 27.6314
lfoot 0 0
ltoes 0
